<svg xmlns="http://www.w3.org/2000/svg" width="20" height="20" viewBox="0 0 20 20" shape-rendering="crispEdges">
  <!-- package -->
  <rect x="5" y="5" width="10" height="10" rx="1.5" fill="#BFA9FF"/>
  <!-- inner die -->
  <rect x="8" y="8" width="4" height="4" rx="0.8" fill="#120F1F" opacity="0.85"/>
  <!-- pins top -->
  <rect x="6" y="3" width="1" height="2" rx="0.5" fill="#BFA9FF"/>
  <rect x="9.5" y="3" width="1" height="2" rx="0.5" fill="#BFA9FF"/>
  <rect x="13" y="3" width="1" height="2" rx="0.5" fill="#BFA9FF"/>
  <!-- pins bottom -->
  <rect x="6" y="15" width="1" height="2" rx="0.5" fill="#BFA9FF"/>
  <rect x="9.5" y="15" width="1" height="2" rx="0.5" fill="#BFA9FF"/>
  <rect x="13" y="15" width="1" height="2" rx="0.5" fill="#BFA9FF"/>
  <!-- pins left -->
  <rect x="3" y="6" width="2" height="1" rx="0.5" fill="#BFA9FF"/>
  <rect x="3" y="9.5" width="2" height="1" rx="0.5" fill="#BFA9FF"/>
  <rect x="3" y="13" width="2" height="1" rx="0.5" fill="#BFA9FF"/>
  <!-- pins right -->
  <rect x="15" y="6" width="2" height="1" rx="0.5" fill="#BFA9FF"/>
  <rect x="15" y="9.5" width="2" height="1" rx="0.5" fill="#BFA9FF"/>
  <rect x="15" y="13" width="2" height="1" rx="0.5" fill="#BFA9FF"/>
</svg>