<svg xmlns="http://www.w3.org/2000/svg" width="20" height="20" viewBox="0 0 20 20">
  <!-- bulb body -->
  <path d="M10 3c3 0 5.5 2.4 5.5 5.3 0 1.7-.8 3.3-2.1 4.3-.4.3-.7.8-.8 1.3l-.1.6H7.5l-.1-.6c-.1-.5-.4-1-.8-1.3C5.3 11.6 4.5 10 4.5 8.3 4.5 5.4 7 3 10 3z" fill="#BFA9FF"/>
  <!-- neck/base -->
  <rect x="7" y="14" width="6" height="2" rx="1" fill="#BFA9FF"/>
  <rect x="8" y="16.2" width="4" height="1.6" rx=".8" fill="#BFA9FF"/>
  <!-- small inner highlight cutout -->
  <path d="M12.8 7.2c0 1.6-1.3 2.9-2.9 2.9-.7 0-1.3-.2-1.8-.6" fill="none" stroke="#120F1F" stroke-width="1.2" stroke-linecap="round"/>
</svg>